<?xml version="1.0" standalone="no"?>
<!DOCTYPE svg PUBLIC "-//W3C//DTD SVG 20010904//EN"
 "http://www.w3.org/TR/2001/REC-SVG-20010904/DTD/svg10.dtd">
<svg version="1.0" xmlns="http://www.w3.org/2000/svg"
 width="1024.000000pt" height="1024.000000pt" viewBox="0 0 1024.000000 1024.000000"
 preserveAspectRatio="xMidYMid meet">

<g transform="translate(0.000000,1024.000000) scale(0.100000,-0.100000)"
fill="#000000" stroke="none">
<path d="M2597 8573 l-248 -3 7 -82 7 -81 -92 7 -91 8 0 -103 0 -102 -94 7
-94 6 -7 -157 c-4 -87 -6 -492 -3 -901 l5 -743 -26 5 c-14 3 -56 8 -92 11
l-66 6 -6 -498 c-4 -275 -4 -714 0 -976 l6 -477 94 0 94 0 -3 -225 -3 -225 90
0 91 0 -4 -106 -4 -105 36 7 36 6 0 -106 0 -106 82 6 81 7 -6 -102 -5 -102 95
7 95 7 -4 -107 -3 -107 174 7 173 7 -3 -103 -4 -103 89 2 89 2 -7 -107 -8
-106 34 5 c60 11 521 28 529 20 4 -4 4 -48 0 -98 -5 -49 -5 -93 -2 -97 8 -9
1824 -15 2566 -8 l550 5 3 98 3 98 222 -7 222 -7 34 29 c19 16 62 56 96 90 93
91 105 93 533 80 l242 -7 0 106 0 106 107 -3 106 -3 -2 70 c-1 39 -4 85 -8
103 -4 24 -2 31 8 28 8 -2 68 -7 133 -10 l119 -6 -7 106 -7 105 96 -7 95 -7 0
64 c0 35 3 129 7 208 l6 144 94 -7 93 -6 -6 92 c-3 51 -7 105 -9 119 -2 14 0
30 5 35 4 5 10 142 13 304 6 316 14 385 43 408 17 13 16 13 -13 7 -35 -7 -33
-10 -54 89 -17 77 -40 110 -124 174 -122 91 -259 116 -423 78 -43 -10 -64 -11
-69 -3 -3 5 -6 260 -6 565 l1 555 -80 -7 c-44 -4 -85 -8 -91 -9 -8 -1 -11 16
-10 53 7 187 14 1675 9 1704 l-7 35 -92 -6 -92 -6 3 95 4 95 -59 -4 c-32 -2
-73 -5 -91 -6 l-33 -3 2 85 c1 79 0 86 -17 83 -11 -1 -174 -6 -365 -10 l-345
-7 -40 -31 c-21 -16 -52 -38 -67 -48 -38 -23 -62 -66 -78 -137 -12 -55 -16
-61 -57 -80 -42 -21 -53 -21 -355 -16 -288 5 -505 20 -517 37 -10 13 -126 30
-245 35 -157 8 -327 22 -500 43 -178 21 -779 22 -860 0 -49 -13 -50 -14 -53
-55 -3 -39 -6 -43 -35 -48 -18 -3 -202 -6 -410 -7 l-377 -3 0 92 0 92 -176 -5
-177 -5 7 81 6 80 -127 -2 c-71 -2 -240 -4 -376 -5z m4941 -359 l202 -6 0 -89
0 -89 85 0 85 0 -4 -465 c-2 -257 -6 -468 -8 -471 -3 -2 -31 19 -64 47 -39 34
-62 63 -68 86 -7 24 -29 49 -78 89 -97 78 -101 86 -106 215 -4 98 -6 109 -22
104 -10 -3 -35 -6 -56 -7 -25 -1 -44 -8 -55 -21 -20 -26 -39 -14 -39 24 l0 29
-91 0 -90 0 2 88 2 87 -169 8 c-93 4 -175 9 -181 12 -14 5 -18 89 -7 144 l7
31 83 0 84 0 0 98 0 97 143 -2 c78 -2 233 -6 345 -9z m-4451 -69 c3 -87 12
-142 21 -128 4 6 37 14 75 18 l67 7 0 -96 0 -96 -74 0 c-45 0 -78 -5 -82 -11
-4 -8 -25 -9 -59 -5 -29 3 -67 3 -85 0 l-32 -7 2 -66 c5 -121 13 -111 -89
-111 l-89 0 -7 -77 c-3 -43 -7 -85 -8 -93 -2 -12 -20 -16 -85 -18 l-82 -3 0
-83 c0 -96 1 -96 -103 -96 -37 0 -59 -4 -61 -12 -3 -7 -8 -26 -12 -43 -7 -28
-8 -29 -12 -6 -4 23 -6 24 -69 18 -36 -4 -71 -11 -78 -17 -9 -8 -14 -5 -19 12
-3 13 -6 198 -6 412 l0 388 83 -3 82 -4 2 50 c2 28 5 69 9 92 l5 42 97 4 c53
1 212 3 352 2 l255 0 2 -70z m2218 -110 c66 -3 296 -10 510 -15 215 -5 398
-12 408 -16 17 -6 18 -15 11 -96 l-7 -90 134 6 c74 4 183 9 243 12 l109 6 -7
-90 c-8 -111 -5 -119 40 -114 19 2 58 1 87 -2 l52 -7 -3 -85 -4 -85 66 2 c36
1 69 -1 73 -4 3 -4 51 -7 105 -7 l99 0 -3 -106 -3 -106 87 4 87 4 7 -29 c3
-16 3 -63 -1 -105 l-7 -77 69 5 c119 9 113 14 113 -102 l0 -101 86 6 87 5 -5
-100 -5 -101 88 6 89 6 0 -200 0 -199 85 0 85 0 2 -302 c3 -438 -2 -1267 -8
-1380 l-6 -98 -84 0 -84 0 0 -210 0 -210 -85 0 -85 0 0 -106 0 -106 -85 7 -85
7 0 -101 0 -100 -87 -3 -87 -3 3 -94 3 -93 -89 3 -88 4 0 -100 0 -100 -172 4
-172 3 -3 -98 -3 -99 -220 0 -220 0 -3 -103 -3 -104 -57 6 c-31 3 -570 7
-1197 8 -745 2 -1142 6 -1147 13 -4 6 -5 48 -1 95 l6 85 -189 4 c-104 3 -235
5 -291 5 l-103 1 0 91 0 92 -176 7 -175 7 7 91 7 90 -92 -6 -91 -6 0 100 0
100 -91 -7 -91 -7 4 102 3 102 -90 -2 -90 -2 -1 84 c-1 46 -2 92 -3 102 -1 15
-12 17 -91 17 l-90 0 0 116 0 116 -89 -7 c-87 -7 -88 -7 -94 17 -8 29 -9 142
-1 188 l6 35 359 0 359 0 0 60 c0 33 3 90 7 128 l6 67 -372 0 -371 0 -11 27
c-6 16 -7 53 -3 90 3 34 3 74 0 89 -7 25 -8 26 -89 22 l-82 -3 -2 394 -3 394
84 -7 83 -7 8 208 c4 114 11 314 14 443 l6 235 87 -2 86 -1 7 61 c3 34 8 79
11 100 l6 38 86 -7 87 -7 -3 107 -3 106 85 -6 86 -7 0 84 c0 135 -3 131 101
127 l89 -3 0 103 0 102 170 0 170 0 0 95 0 95 58 0 c31 0 108 3 170 7 l113 6
-3 88 -3 88 80 6 c44 4 135 5 203 3 l122 -3 0 65 c0 36 3 82 6 102 l7 38 276
3 c351 4 861 0 1016 -8z m1718 -412 c-7 -2 -21 -2 -30 0 -10 3 -4 5 12 5 17 0
24 -2 18 -5z m6 -50 c-2 -35 -2 -35 -6 -8 -3 16 -10 33 -16 37 -8 5 -6 8 6 8
13 0 17 -8 16 -37z m1562 -2483 c41 -11 84 -20 97 -20 l22 0 0 -411 0 -411
-84 3 -84 4 -7 -209 -7 -208 -62 6 c-33 3 -86 7 -116 8 l-55 2 -2 -80 c-1 -43
-2 -89 -2 -101 -1 -22 -5 -23 -98 -25 l-98 -2 88 -3 87 -4 0 -89 0 -90 -39 0
c-21 0 -59 3 -85 6 -41 6 -46 10 -47 33 l-2 26 -4 -27 c-4 -27 -5 -27 -96 -30
l-92 -3 -3 -99 c-3 -96 -3 -98 -25 -92 -12 3 -79 6 -149 6 l-128 0 0 86 0 86
75 -4 75 -3 0 108 0 108 85 -7 85 -7 0 107 0 107 95 -7 95 -7 -3 113 -2 112
88 -4 87 -4 0 28 c0 37 -17 43 -93 30 -34 -5 -63 -9 -63 -8 -1 0 -5 34 -9 75
l-7 74 95 -6 95 -6 -5 412 -5 412 53 16 c75 23 162 23 250 -1z"/>
<path d="M2364 7715 c0 -60 1 -84 3 -52 2 32 2 81 0 110 -2 29 -3 3 -3 -58z"/>
<path d="M5311 7478 c-1 -24 3 -28 27 -27 22 1 23 2 5 6 -13 2 -24 13 -26 26
-4 18 -5 17 -6 -5z"/>
<path d="M6328 7453 c6 -2 18 -2 25 0 6 3 1 5 -13 5 -14 0 -19 -2 -12 -5z"/>
<path d="M6210 6703 c-187 -40 -404 -246 -470 -445 -26 -80 -29 -295 -4 -379
48 -164 194 -338 353 -418 96 -50 323 -68 446 -36 172 45 352 212 448 415 28
58 31 77 35 181 6 174 -6 234 -70 337 -64 102 -184 228 -253 264 -92 49 -218
79 -345 83 -63 2 -126 1 -140 -2z m78 -273 c40 -4 84 -16 98 -25 26 -17 26
-17 23 -137 -4 -116 -5 -121 -31 -143 -26 -22 -34 -23 -160 -22 l-133 2 -17
60 c-17 61 -23 197 -12 254 l7 32 76 -7 c42 -3 109 -9 149 -14z"/>
<path d="M3162 6671 c-46 -16 -102 -41 -124 -56 -65 -43 -172 -158 -233 -251
-61 -93 -74 -146 -75 -299 0 -199 44 -309 184 -453 150 -155 210 -185 404
-202 209 -19 343 22 454 137 167 173 223 263 248 395 14 72 12 276 -3 318 -21
56 -126 210 -187 271 -66 67 -192 132 -295 154 -38 8 -119 15 -180 15 -96 0
-121 -4 -193 -29z m191 -247 c64 -21 71 -37 64 -158 -9 -146 -12 -149 -163
-159 -124 -8 -156 -2 -170 32 -3 9 -9 81 -11 161 l-6 145 119 -3 c71 -2 138
-9 167 -18z"/>
<path d="M4542 5793 c-6 -2 -10 -8 -8 -11 2 -4 5 -45 7 -92 2 -47 8 -90 14
-97 5 -7 15 -19 22 -27 9 -11 27 -13 71 -9 l59 6 6 -124 c4 -68 10 -154 13
-191 l7 -68 -108 0 c-94 0 -106 -2 -101 -16 3 -9 9 -48 13 -86 l6 -71 -24 6
c-13 4 -88 7 -166 7 l-143 0 0 145 0 145 -185 0 -184 0 -3 -155 -3 -156 25 5
c14 3 57 8 96 11 l72 7 -5 -105 -6 -104 93 -5 c62 -4 97 -10 104 -19 9 -11 48
-14 171 -14 88 0 161 4 162 9 1 5 28 19 60 32 38 15 68 36 88 61 17 20 40 46
53 58 12 11 39 36 59 55 27 26 37 31 41 20 9 -29 178 -186 232 -215 54 -29 59
-30 228 -35 l172 -5 0 37 0 37 98 3 97 3 3 69 c2 38 -2 82 -7 99 l-11 29 68
-6 c37 -4 82 -10 101 -13 l33 -6 -3 152 -4 151 -172 0 c-94 0 -179 3 -189 7
-16 6 -16 -4 -10 -139 l8 -145 -165 -9 -165 -9 -5 69 c-3 37 -8 71 -11 74 -3
3 -44 4 -91 3 l-85 -1 0 73 c0 41 3 135 7 210 6 134 6 135 28 127 23 -9 62
-13 113 -11 24 1 32 5 32 20 0 20 23 30 80 32 29 2 26 3 -15 8 l-50 6 0 85 0
85 -305 2 c-168 1 -311 -1 -318 -4z"/>
<path d="M2897 5314 c-3 -3 -164 -6 -356 -5 l-351 1 0 -128 0 -127 365 0 365
0 0 50 c0 28 3 87 7 133 5 69 4 82 -9 82 -8 0 -17 -3 -21 -6z"/>
<path d="M6880 5181 l0 -133 423 7 c232 4 424 9 427 12 3 3 7 59 8 126 l4 122
-431 0 -431 0 0 -134z"/>
<path d="M6880 4647 l0 -132 429 -3 429 -4 7 64 c4 34 7 94 8 131 l2 69 -437
3 -438 4 0 -132z"/>
<path d="M7232 4210 c0 -19 2 -27 5 -17 2 9 2 25 0 35 -3 9 -5 1 -5 -18z"/>
<path d="M7065 4040 c-8 -13 55 -13 75 0 11 7 4 10 -27 10 -23 0 -45 -4 -48
-10z"/>
<path d="M6720 3813 c0 -11 3 -14 8 -7 4 6 14 14 22 17 10 4 8 6 -7 6 -16 1
-23 -5 -23 -16z"/>
</g>
</svg>
